# xmcd
#
# Track frame offsets:
#	150
#	10313
#	21795
#	31138
#	48470
#	60625
#	73338
#	85795
#	99328
#	115205
#	137843
#	152763
#	168093
#	193428
#	205613
#	219313
#
# Disc length: 3089
#
# Revision: 1
# Processed by: cddbd v1.5.1PL0 Copyright (c) Steve Scherf et al.
# Submitted via: ExactAudioCopy v0.95a3
# Normalized: r0:TDELIM( - )
#
DISCID=d80c0f10
DTITLE=Various Artist - Best of the Blues
DYEAR=1900
DGENRE=Blues
TTITLE0=John Lee Hooker - Dimples
TTITLE1=John Lee Hooker - Boom Boom
TTITLE2=John Lee Hooker - Onions
TTITLE3=John Lee Hooker - Blues Before Sunrise
TTITLE4=Muddy Waters - Mean Mistreater
TTITLE5=Muddy Waters - Can't Lose What You Never Had
TTITLE6=Muddy Waters - So Glad I'm Living
TTITLE7=Muddy Waters - You're Gonna Need My Help
TTITLE8=B.B. King - Evil Child
TTITLE9=B.B. King - Everyday I Have the Blues
TTITLE10=B.B. King - B.B. Boogie
TTITLE11=B.B. King - It's My Own Fault
TTITLE12=Howlin' Wolf - Red Rooster
TTITLE13=Howlin' Wolf - Ain't Superstitious
TTITLE14=Howlin' Wolf - Highway 49
TTITLE15=Howlin' Wolf - Cause Of It All
EXTD=
EXTT0=
EXTT1=
EXTT2=
EXTT3=
EXTT4=
EXTT5=
EXTT6=
EXTT7=
EXTT8=
EXTT9=
EXTT10=
EXTT11=
EXTT12=
EXTT13=
EXTT14=
EXTT15=
PLAYORDER=
